<?xml version="1.0" standalone="no"?>
<!DOCTYPE svg PUBLIC "-//W3C//DTD SVG 20010904//EN"
 "http://www.w3.org/TR/2001/REC-SVG-20010904/DTD/svg10.dtd">
<svg version="1.0" xmlns="http://www.w3.org/2000/svg"
 width="500.000000pt" height="500.000000pt" viewBox="0 0 500.000000 500.000000"
 preserveAspectRatio="xMidYMid meet">

<g transform="translate(0.000000,500.000000) scale(0.100000,-0.100000)"
fill="#000000" stroke="none">
<path d="M2864 3941 c-98 -38 -216 -103 -295 -162 -80 -59 -215 -198 -264
-271 l-36 -55 -47 5 c-41 3 -52 0 -80 -23 -27 -23 -37 -25 -76 -20 -40 6 -46
5 -61 -19 -12 -18 -16 -37 -12 -62 11 -67 47 -85 62 -31 8 24 16 33 36 35 32
4 52 -19 53 -61 1 -42 29 -48 58 -12 23 30 64 31 82 3 8 -14 6 -26 -8 -52 -18
-33 -18 -37 -2 -71 9 -19 21 -35 26 -35 4 0 15 -19 22 -42 13 -37 19 -43 60
-55 55 -16 104 -61 113 -103 5 -23 -14 -97 -75 -296 l-81 -265 41 -49 c167
-199 450 -355 740 -406 125 -22 353 -22 480 1 198 34 391 116 545 229 446 329
569 871 300 1331 l-41 70 -343 149 c-300 130 -344 147 -357 134 -13 -12 -13
-43 2 -246 8 -128 14 -237 12 -242 -2 -5 -61 83 -133 196 -71 112 -135 210
-143 216 -27 23 -46 -8 -91 -148 l-45 -139 -23 164 c-22 161 -30 184 -62 178
-8 -1 -85 -117 -170 -258 -86 -141 -157 -256 -158 -255 -2 1 31 131 72 289 41
157 75 291 75 297 0 7 -106 -43 -236 -110 -129 -67 -237 -120 -239 -118 -2 2
188 173 342 305 21 18 36 33 33 33 -3 -1 -37 -13 -76 -29z m1633 -997 c9 -24
-10 -49 -38 -49 -24 0 -36 23 -25 51 7 19 55 18 63 -2z m-1029 -22 c-21 -54
-104 -222 -108 -222 -6 0 -83 157 -107 218 -4 9 21 12 107 12 61 0 110 -4 108
-8z m802 -7 c20 -24 3 -57 -28 -53 -27 3 -39 26 -28 54 7 18 40 18 56 -1z
m-1580 -30 c20 -25 8 -50 -25 -50 -21 0 -31 5 -33 18 -4 21 14 47 33 47 7 0
18 -7 25 -15z m1360 0 c20 -25 8 -50 -25 -50 -24 0 -31 5 -33 24 -6 37 34 55
58 26z m-1142 -27 c17 -17 15 -43 -4 -59 -31 -26 -70 25 -44 56 15 18 32 19
48 3z m916 -4 c9 -8 16 -19 16 -24 0 -10 -29 -40 -38 -40 -29 1 -46 44 -26 65
19 19 29 19 48 -1z m-686 -56 c2 -19 -2 -28 -18 -33 -24 -8 -50 10 -50 35 0
24 10 31 40 28 19 -2 26 -10 28 -30z m477 12 c14 -44 -44 -69 -65 -29 -9 15
-8 24 1 35 18 21 57 18 64 -6z"/>
<path d="M1280 2805 c0 -5 25 -87 55 -181 30 -95 55 -179 55 -187 0 -9 -14
-17 -37 -22 -50 -9 -134 -47 -178 -81 -21 -16 -61 -69 -96 -131 -42 -70 -68
-105 -82 -108 -29 -6 -340 -55 -350 -55 -4 0 -7 -37 -5 -82 l3 -83 700 0 700
0 52 24 c55 24 117 84 133 127 21 53 15 60 -72 87 -139 44 -257 129 -329 237
-30 45 -30 45 -112 57 l-82 11 67 -1 c38 0 71 2 74 5 3 3 -75 9 -173 13 -98 3
-183 8 -188 9 -6 2 -35 80 -64 174 -49 157 -70 212 -71 187z m246 -596 c25 -7
42 -15 37 -19 -12 -11 -163 -33 -171 -25 -9 8 37 43 63 48 11 2 21 5 23 6 2 0
23 -4 48 -10z"/>
<path d="M1748 2503 c7 -3 16 -2 19 1 4 3 -2 6 -13 5 -11 0 -14 -3 -6 -6z"/>
<path d="M417 2203 c-4 -3 -7 -68 -7 -144 0 -112 3 -141 16 -153 18 -19 33
-20 70 -6 27 11 27 11 21 88 -12 145 -62 253 -100 215z"/>
<path d="M1939 1766 c-48 -13 -95 -41 -146 -89 -26 -24 -31 -26 -27 -10 4 12
-4 31 -21 51 -88 105 -430 21 -389 -95 7 -20 17 -29 37 -31 35 -4 77 22 77 47
0 16 18 31 35 31 3 0 -32 -55 -76 -122 -103 -159 -111 -188 -48 -188 26 0 35
9 76 74 l46 73 41 -4 c32 -4 55 2 99 25 56 28 58 29 52 8 -23 -78 -10 -142 34
-166 87 -46 252 64 330 221 41 82 40 105 -8 152 -42 41 -45 41 -112 23z m-285
-82 c22 -9 20 -27 -6 -52 -26 -24 -80 -53 -86 -47 -6 6 58 105 68 105 5 0 15
-3 24 -6z m241 -66 c6 -13 20 -28 32 -34 22 -11 22 -11 -22 -57 -46 -49 -100
-87 -122 -87 -20 0 -15 51 8 90 28 46 79 110 87 110 4 0 12 -10 17 -22z m78
-3 c-3 -9 -8 -14 -10 -11 -3 3 -2 9 2 15 9 16 15 13 8 -4z"/>
<path d="M2430 1764 c-14 -9 -54 -44 -89 -78 l-64 -61 33 58 c37 68 31 87 -30
87 -35 0 -45 -7 -108 -76 -118 -128 -257 -330 -246 -359 7 -18 51 -38 65 -30
5 3 27 37 50 75 23 39 42 70 44 70 1 0 2 -17 1 -37 -1 -35 2 -38 28 -41 23 -3
39 6 82 49 49 48 53 50 42 23 -15 -42 -4 -82 26 -90 32 -8 74 16 120 67 34 37
44 42 92 46 83 6 106 17 102 51 -3 26 -6 27 -65 30 -51 2 -66 -1 -82 -17 -11
-11 -27 -18 -36 -15 -16 6 4 41 92 156 41 54 52 82 36 91 -27 16 -70 16 -93 1z"/>
<path d="M2920 1759 c-40 -25 -190 -41 -190 -20 0 14 -35 14 -61 1 -24 -13
-25 -62 -2 -81 10 -9 40 -14 79 -14 38 0 60 -4 56 -10 -37 -64 -106 -155 -117
-155 -22 0 -57 -57 -53 -86 4 -34 27 -49 61 -40 27 6 51 37 171 221 46 70 74
105 87 105 30 0 68 22 75 42 7 24 -22 58 -50 58 -12 0 -37 -10 -56 -21z"/>
<path d="M3380 1704 l-82 -79 27 57 c34 69 29 88 -23 88 -32 0 -47 -7 -80 -39
-93 -91 -286 -359 -280 -390 4 -19 46 -41 64 -34 7 3 26 28 43 56 16 29 36 61
45 72 16 19 16 19 7 -6 -12 -34 3 -59 37 -59 18 0 43 16 80 53 51 49 53 50 37
18 -21 -41 -9 -77 29 -87 29 -7 54 6 107 53 30 28 39 43 39 69 0 19 -6 37 -15
42 -13 7 -9 18 26 68 50 72 63 86 55 59 -3 -11 0 -32 8 -47 13 -24 12 -28 -11
-50 -102 -95 -48 -213 85 -188 82 15 192 103 192 155 0 26 -24 55 -46 55 -11
0 -12 4 -4 19 5 11 7 27 3 37 -5 14 -16 16 -70 11 -68 -7 -81 3 -35 27 20 10
45 13 83 9 45 -4 58 -2 79 15 24 20 24 22 9 49 -14 26 -19 28 -80 28 -49 0
-76 -6 -116 -26 l-53 -26 6 23 c7 26 1 30 -48 39 -35 7 -39 4 -118 -71z m320
-153 c0 -43 -156 -141 -175 -110 -10 15 68 89 110 104 47 17 65 18 65 6z"/>
<path d="M3055 1738 c-38 -45 -189 -275 -211 -321 -16 -34 -16 -39 -3 -53 30
-30 67 -8 116 70 25 39 81 126 125 193 44 67 77 127 73 133 -3 5 -21 10 -40
10 -25 0 -40 -8 -60 -32z"/>
</g>
</svg>
